G75*
%MOIN*%
%OFA0B0*%
%FSLAX24Y24*%
%IPPOS*%
%LPD*%
%AMOC8*
5,1,8,0,0,1.08239X$1,22.5*
%
%ADD10C,0.0740*%
%ADD11C,0.1260*%
%ADD12C,0.0472*%
%ADD13R,0.0880X0.0480*%
%ADD14R,0.0866X0.1417*%
%ADD15R,0.0354X0.0315*%
%ADD16C,0.0160*%
%ADD17OC8,0.0236*%
D10*
X008093Y002322D03*
X008093Y003256D03*
X008093Y004144D03*
X008093Y005078D03*
D11*
X007148Y001417D03*
X007148Y005983D03*
D12*
X012512Y006200D02*
X012984Y006200D01*
X012984Y005200D02*
X012512Y005200D01*
X012512Y004200D02*
X012984Y004200D01*
X012984Y003200D02*
X012512Y003200D01*
X012512Y002200D02*
X012984Y002200D01*
X012984Y001200D02*
X012512Y001200D01*
D13*
X011468Y002790D03*
X011468Y003700D03*
X011468Y004610D03*
D14*
X009028Y003700D03*
D15*
X009387Y005724D03*
X009387Y006276D03*
X009387Y001676D03*
X009387Y001124D03*
D16*
X009387Y001100D01*
X008048Y001100D01*
X008048Y002322D01*
X008093Y002322D01*
X008171Y002400D01*
X010448Y002400D01*
X010838Y002790D01*
X011468Y002790D01*
X012348Y003200D02*
X012748Y003200D01*
X012348Y003200D02*
X011848Y003700D01*
X011468Y003700D01*
X009948Y003700D01*
X009948Y005724D01*
X009387Y005724D01*
X009387Y006276D02*
X011468Y006276D01*
X011468Y004610D01*
X011468Y004600D01*
X010448Y004600D01*
X008093Y005078D02*
X008048Y005078D01*
X008048Y006300D01*
X009387Y006300D01*
X009387Y006276D01*
X009387Y001676D02*
X011772Y001676D01*
X012248Y001200D01*
X012748Y001200D01*
X010448Y001676D02*
X010448Y001700D01*
X010448Y001676D02*
X009387Y001676D01*
D17*
X010448Y001700D03*
X010448Y004600D03*
M02*
