G75*
%MOIN*%
%OFA0B0*%
%FSLAX24Y24*%
%IPPOS*%
%LPD*%
%AMOC8*
5,1,8,0,0,1.08239X$1,22.5*
%
%ADD10C,0.0867*%
%ADD11R,0.0300X0.0580*%
%ADD12R,0.0580X0.0300*%
%ADD13R,0.0474X0.1182*%
%ADD14R,0.0316X0.0749*%
%ADD15C,0.0552*%
%ADD16R,0.0395X0.0434*%
%ADD17R,0.0240X0.0907*%
%ADD18R,0.0749X0.0415*%
%ADD19R,0.0118X0.0295*%
%ADD20R,0.1700X0.1420*%
%ADD21OC8,0.0316*%
D10*
X001784Y004434D03*
X002734Y011834D03*
X012334Y011884D03*
X013534Y004384D03*
D11*
X009061Y005310D03*
X008746Y005310D03*
X008431Y005310D03*
X008116Y005310D03*
X007802Y005310D03*
X007487Y005310D03*
X007172Y005310D03*
X006857Y005310D03*
X006857Y008690D03*
X007172Y008690D03*
X007487Y008690D03*
X007802Y008690D03*
X008116Y008690D03*
X008431Y008690D03*
X008746Y008690D03*
X009061Y008690D03*
D12*
X009649Y008102D03*
X009649Y007787D03*
X009649Y007472D03*
X009649Y007157D03*
X009649Y006842D03*
X009649Y006528D03*
X009649Y006213D03*
X009649Y005898D03*
X006269Y005898D03*
X006269Y006213D03*
X006269Y006528D03*
X006269Y006842D03*
X006269Y007157D03*
X006269Y007472D03*
X006269Y007787D03*
X006269Y008102D03*
D13*
X005560Y014671D03*
X007607Y014671D03*
X008328Y014678D03*
X009982Y014678D03*
D14*
X009549Y012631D03*
X009155Y012631D03*
X008761Y012631D03*
X007174Y012624D03*
X006781Y012624D03*
X006387Y012624D03*
X005993Y012624D03*
D15*
X006434Y011620D02*
X006434Y011148D01*
X005434Y011148D02*
X005434Y011620D01*
X007434Y011620D02*
X007434Y011148D01*
X008434Y011148D02*
X008434Y011620D01*
X009434Y011620D02*
X009434Y011148D01*
X010434Y011148D02*
X010434Y011620D01*
X013348Y009884D02*
X013820Y009884D01*
X013820Y008884D02*
X013348Y008884D01*
X013348Y007884D02*
X013820Y007884D01*
X013820Y006884D02*
X013348Y006884D01*
X013348Y005884D02*
X013820Y005884D01*
D16*
X006809Y004223D03*
X006258Y004223D03*
X006258Y003323D03*
X006809Y003323D03*
X006809Y002423D03*
X006258Y002423D03*
X006258Y001523D03*
X006809Y001523D03*
X001665Y006919D03*
X001093Y006919D03*
X001098Y007673D03*
X001670Y007673D03*
X001670Y008823D03*
X001098Y008823D03*
X001093Y009669D03*
X001665Y009669D03*
D17*
X006261Y009684D03*
X006734Y009684D03*
X007206Y009684D03*
D18*
X003844Y009220D03*
X002663Y008433D03*
X003844Y007646D03*
X002663Y006858D03*
X003844Y006071D03*
X002663Y005283D03*
X003844Y004496D03*
X002663Y003709D03*
X003844Y002921D03*
X002663Y010008D03*
X011324Y010008D03*
X012505Y009220D03*
X011324Y008433D03*
X012505Y007646D03*
X011324Y006858D03*
X012505Y006071D03*
X011324Y005283D03*
X012505Y004496D03*
X011324Y003709D03*
X012505Y002921D03*
D19*
X009223Y003549D03*
X009026Y003549D03*
X008830Y003549D03*
X008633Y003549D03*
X008437Y003549D03*
X008240Y003549D03*
X008043Y003549D03*
X008043Y001619D03*
X008240Y001619D03*
X008437Y001619D03*
X008633Y001619D03*
X008830Y001619D03*
X009026Y001619D03*
X009223Y001619D03*
D20*
X008634Y002584D03*
D21*
X002584Y002984D03*
X005284Y003334D03*
X005684Y002934D03*
X006234Y002834D03*
X005684Y004234D03*
X008084Y004734D03*
X008734Y004384D03*
X008484Y005984D03*
X008784Y007084D03*
X010234Y006534D03*
X012034Y008334D03*
X010584Y009234D03*
X010184Y008834D03*
X009434Y009584D03*
X008434Y010584D03*
X008134Y009184D03*
X007484Y009184D03*
X007134Y007784D03*
X007134Y007334D03*
X010634Y009934D03*
X011084Y011234D03*
X009134Y013434D03*
X008534Y013234D03*
X007734Y013084D03*
X007834Y013784D03*
X006434Y013434D03*
X006034Y013684D03*
X005084Y012534D03*
X005984Y011984D03*
X003834Y012784D03*
X004734Y014084D03*
X002134Y007634D03*
X008234Y001084D03*
X008834Y001084D03*
X009434Y001234D03*
X010284Y001234D03*
X007334Y000734D03*
X014184Y009284D03*
X013484Y011884D03*
M02*
