%
M48
M72
T01C0.0118
T02C0.0315
T03C0.0787
%
T01
X2584Y2984
X5284Y3334
X5684Y2934
X6234Y2834
X5684Y4234
X8084Y4734
X8734Y4384
X8484Y5984
X8784Y7084
X10234Y6534
X12034Y8334
X10584Y9234
X10184Y8834
X9434Y9584
X8434Y10584
X8134Y9184
X7484Y9184
X7134Y7784
X7134Y7334
X10634Y9934
X11084Y11234
X9134Y13434
X8534Y13234
X7734Y13084
X7834Y13784
X6434Y13434
X6034Y13684
X5084Y12534
X5984Y11984
X3834Y12784
X4734Y14084
X2134Y7634
X8234Y1084
X8834Y1084
X9434Y1234
X10284Y1234
X7334Y734
X14184Y9284
X13484Y11884
T02
X13584Y9884
X13584Y8884
X13584Y7884
X13584Y6884
X13584Y5884
X10434Y11384
X9434Y11384
X8434Y11384
X7434Y11384
X6434Y11384
X5434Y11384
T03
X2734Y11834
X1784Y4434
X12334Y11884
X13534Y4384
M30
